<?xml version="1.0" standalone="no"?>
<!DOCTYPE svg PUBLIC "-//W3C//DTD SVG 20010904//EN"
 "http://www.w3.org/TR/2001/REC-SVG-20010904/DTD/svg10.dtd">
<svg version="1.0" xmlns="http://www.w3.org/2000/svg"
 width="60" height="60" viewBox="0 0 740.000000 740.000000"
 preserveAspectRatio="xMidYMid meet">

<g transform="translate(0.000000,740.000000) scale(0.100000,-0.100000)"
fill="#006eff" stroke="none">
<path d="M4160 5769 c-107 -10 -323 -29 -480 -43 -183 -16 -304 -31 -338 -42
-66 -22 -136 -82 -166 -143 -34 -69 -71 -237 -84 -386 -7 -79 -7 -80 -37 -86
-16 -4 -60 -7 -96 -8 l-66 -1 -7 39 c-7 44 -44 94 -85 116 -15 7 -33 25 -40
39 -9 15 -33 33 -60 43 -41 16 -83 18 -356 18 -240 -1 -333 -5 -410 -17 -237
-39 -294 -87 -295 -245 0 -86 17 -77 -180 -93 -159 -13 -349 -37 -376 -46 -36
-13 -74 -46 -92 -77 -14 -26 -18 -68 -22 -236 l-5 -205 -48 -26 c-258 -142
-301 -489 -85 -684 34 -31 76 -61 93 -67 l32 -12 7 -541 c4 -298 6 -644 6
-771 -1 -206 1 -237 19 -296 61 -196 272 -332 613 -398 221 -42 389 -39 1083
24 209 19 587 53 841 75 l460 42 102 -52 c436 -220 965 -234 1416 -39 161 70
301 162 458 302 46 41 94 78 108 82 85 26 164 90 210 169 31 55 60 157 60 216
0 20 16 74 36 120 152 360 173 789 59 1166 -14 45 -25 104 -25 132 l0 50 54
26 c212 104 268 390 116 592 -22 29 -60 67 -85 84 l-45 31 3 122 c2 109 0 126
-20 164 -30 56 -78 93 -165 127 -61 24 -218 66 -304 82 -20 3 -21 12 -27 135
-7 144 -15 167 -67 194 -71 37 -417 43 -537 9 -75 -21 -83 -37 -83 -166 l0
-108 -34 0 -34 0 -12 98 c-27 223 -56 298 -134 351 -29 20 -114 52 -256 96
-208 64 -214 65 -318 64 -59 -1 -195 -10 -302 -20z m654 -143 c48 -15 86 -29
84 -31 -2 -2 -102 -11 -223 -19 -775 -56 -774 -56 -832 -118 -32 -34 -40 -92
-48 -334 -8 -227 -7 -232 44 -288 14 -16 20 -26 14 -22 -7 4 -13 3 -13 -2 0
-16 28 -22 108 -23 l77 -2 -100 -12 c-55 -7 -124 -14 -153 -14 -53 -1 -53 -1
-34 20 28 29 32 80 32 379 0 251 -1 269 -20 292 -26 34 -65 48 -252 93 -87 21
-158 42 -158 46 0 13 92 28 239 39 139 11 144 11 166 -10 47 -44 111 -48 410
-25 105 8 262 19 349 25 110 7 166 14 180 24 12 8 26 14 31 12 6 -2 50 -15 99
-30z m200 -107 c15 -12 32 -32 36 -45 22 -57 75 -464 65 -495 -8 -23 -28 -34
-75 -43 -56 -10 -987 -76 -1072 -76 -71 0 -78 2 -97 26 -19 24 -21 40 -21 173
1 219 13 336 36 362 36 41 75 48 431 74 191 14 395 30 453 34 187 14 214 13
244 -10z m386 -278 c0 -42 3 -107 7 -144 l6 -68 -29 7 c-52 12 -54 17 -54 158
l0 132 35 -4 35 -4 0 -77z m463 -23 c9 -154 9 -204 -2 -192 -11 11 -22 304
-11 304 4 0 10 -51 13 -112z m-58 -44 c4 -80 5 -148 2 -151 -4 -3 -13 -3 -22
0 -21 9 -23 297 -1 297 11 0 15 -32 21 -146z m-305 98 c0 -22 3 -87 7 -145 l6
-107 -26 0 c-14 0 -28 3 -30 8 -3 4 -8 69 -12 145 l-7 137 31 0 c29 0 31 -2
31 -38z m120 -108 l0 -145 -32 3 -33 3 -3 143 -3 142 36 0 35 0 0 -146z m103
79 c4 -38 7 -103 7 -145 l0 -78 -29 0 c-28 0 -28 1 -35 77 -3 42 -6 107 -6
145 l0 68 29 0 c28 0 28 -1 34 -67z m-2943 -83 c22 -14 10 -19 -91 -40 -137
-27 -415 -43 -604 -35 -191 8 -377 36 -360 53 4 4 199 7 433 8 262 0 443 5
467 11 51 14 136 15 155 3z m40 -160 c0 -106 8 -99 -145 -129 -172 -34 -322
-44 -575 -38 -201 5 -376 20 -389 32 -1 2 -6 52 -9 111 l-5 107 24 -6 c137
-34 222 -41 504 -41 179 0 319 4 365 12 41 7 93 14 115 17 22 3 54 9 70 14 17
5 33 10 38 10 4 1 7 -40 7 -89z m2422 50 c-3 -36 -15 -50 -44 -50 -15 0 -18 9
-18 46 0 45 0 45 33 42 30 -3 32 -5 29 -38z m848 -50 c146 -38 238 -83 264
-129 19 -33 19 -41 2 -415 -9 -209 -19 -403 -23 -430 l-6 -49 -36 69 -35 69
-1 327 c0 245 -3 330 -12 339 -7 7 -16 10 -19 6 -3 -3 -6 -59 -5 -124 1 -65
-1 -198 -5 -297 l-7 -178 -33 38 c-34 39 -34 40 -28 115 9 113 -13 179 -80
245 -66 64 -103 74 -281 74 -126 0 -139 2 -187 26 -76 39 -215 90 -282 105
-47 10 -62 19 -75 41 -16 27 -61 46 -81 33 -6 -4 -28 -4 -48 0 l-37 7 37 19
c20 10 40 23 43 29 4 7 14 6 28 -2 17 -10 132 -13 469 -15 392 -2 448 0 459
14 18 21 0 33 -89 58 -55 15 -72 23 -72 37 0 24 5 23 140 -12z m-2969 -40 c10
-15 85 -42 269 -100 140 -44 270 -83 287 -86 60 -11 25 -20 -129 -33 -84 -6
-292 -23 -463 -36 -170 -13 -400 -31 -510 -40 -395 -31 -537 -51 -606 -86 -51
-25 -65 -72 -34 -113 12 -16 12 -23 1 -45 -34 -68 -41 -133 -39 -381 2 -135 7
-285 12 -335 l8 -90 3 95 c2 52 5 106 6 120 2 14 8 102 14 195 15 261 52 352
176 441 101 72 176 95 439 134 131 20 592 73 719 84 l69 5 -95 -97 c-169 -174
-313 -413 -388 -644 -19 -59 -37 -107 -40 -107 -3 0 -17 17 -32 39 -74 106
-249 165 -383 129 -58 -16 -129 -93 -150 -161 -68 -223 30 -518 172 -518 90 0
211 46 282 107 l39 33 -6 -148 c-12 -354 65 -749 203 -1034 85 -178 215 -377
313 -480 42 -44 41 -44 -78 -53 -88 -6 -518 -44 -795 -70 -88 -8 -229 -18
-314 -21 -149 -7 -154 -7 -147 12 31 75 29 102 -17 224 -14 36 -30 99 -36 140
-7 50 -12 462 -16 1220 -2 630 -8 1175 -13 1212 -10 71 -39 122 -87 154 -24
16 -347 137 -492 185 -66 22 -93 39 -60 39 20 0 339 30 390 36 46 6 47 6 47
-20 0 -15 -7 -29 -15 -32 -26 -10 -17 -34 18 -49 18 -7 69 -23 112 -34 224
-56 509 -55 1243 4 101 8 194 15 206 15 12 0 31 6 42 14 17 13 17 16 4 29 -8
8 -93 40 -187 72 -105 35 -173 63 -173 71 0 9 20 14 63 17 151 8 154 8 168
-13z m-1875 -199 c426 -151 469 -168 501 -199 22 -22 33 -44 37 -74 14 -99 26
-868 26 -1621 0 -875 0 -880 55 -1015 31 -75 32 -124 4 -163 -17 -24 -28 -29
-60 -29 -21 0 -39 1 -39 3 0 1 9 20 20 42 26 51 25 76 -6 253 l-26 147 4 685
c6 1266 4 1600 -11 1658 -20 81 -49 99 -351 221 -146 59 -278 115 -295 124
-55 30 0 18 141 -32z m3114 -24 c-216 -74 -379 -166 -550 -313 -108 -92 -250
-255 -299 -343 -7 -12 -16 -9 -50 18 l-41 33 47 61 c228 296 538 495 883 567
139 29 143 22 10 -23z m770 7 c504 -81 928 -396 1139 -845 57 -121 102 -257
128 -384 28 -141 26 -473 -5 -619 -47 -224 -134 -432 -256 -611 -74 -110 -291
-330 -396 -401 -297 -203 -612 -295 -963 -281 -170 6 -281 25 -429 73 -233 76
-438 205 -616 388 -213 220 -346 471 -415 781 -19 87 -22 129 -21 320 0 189 3
234 22 319 91 408 298 735 621 981 327 248 756 349 1191 279z m1357 -341 c25
-52 28 -69 28 -158 0 -87 -3 -107 -26 -155 -14 -30 -36 -66 -48 -80 l-22 -25
5 100 c4 55 9 162 13 238 3 75 10 137 14 137 4 0 20 -26 36 -57z m90 -75 c-3
-7 -5 -2 -5 12 0 14 2 19 5 13 2 -7 2 -19 0 -25z m-5366 -8 c35 -11 75 -29 89
-41 20 -17 21 -19 5 -13 -11 4 -50 9 -88 12 -102 7 -173 -23 -257 -107 -52
-52 -69 -78 -83 -122 -31 -100 -19 -239 25 -301 31 -45 4 -32 -35 15 -63 77
-81 122 -85 216 -5 105 18 175 79 244 94 107 213 140 350 97z m5376 -107 c-2
-21 -4 -6 -4 32 0 39 2 55 4 38 2 -18 2 -50 0 -70z m-5287 -4 c81 -37 117 -85
140 -191 34 -152 -82 -318 -252 -358 -93 -23 -208 42 -245 138 -12 33 -18 73
-18 132 1 72 5 93 27 136 21 39 96 124 111 124 1 0 27 9 57 20 70 25 124 25
180 -1z m5277 -61 c-3 -8 -6 -5 -6 6 -1 11 2 17 5 13 3 -3 4 -12 1 -19z
m-3129 -75 l33 -28 -64 -125 c-35 -69 -74 -160 -88 -202 l-24 -77 -47 30 -47
31 29 80 c27 73 128 276 152 306 15 17 19 16 56 -15z m-869 -109 c36 -7 42
-24 9 -24 -58 -1 -142 -78 -155 -142 -3 -16 -8 -28 -12 -28 -4 0 -19 19 -34
43 -72 110 23 185 192 151z m139 -157 c6 -7 16 -25 21 -41 l11 -28 -26 21
c-48 38 -92 25 -140 -40 -27 -37 -31 -26 -10 25 25 61 114 100 144 63z m535
-166 c20 -12 37 -28 37 -34 0 -7 -12 -66 -25 -132 -15 -74 -27 -175 -31 -262
l-7 -141 -44 21 -43 21 0 110 c0 61 7 157 15 212 16 114 44 236 54 232 3 -2
23 -14 44 -27z m-1893 -8 c0 -5 7 -78 15 -163 9 -85 18 -184 21 -220 2 -36 11
-128 19 -205 8 -77 17 -174 20 -215 8 -104 33 -330 46 -422 12 -80 34 -116 64
-105 19 8 19 43 -1 218 -9 76 -14 146 -12 156 3 16 6 15 29 -8 25 -24 26 -31
30 -155 6 -217 6 -220 -15 -243 -11 -12 -27 -21 -36 -21 -29 0 -234 80 -253
99 -27 26 -33 100 -56 631 -12 256 -24 495 -27 533 -5 53 -3 67 7 67 8 0 41
13 74 29 65 32 75 35 75 24z m1841 -585 c27 -15 39 -29 39 -44 0 -27 27 -186
36 -208 5 -13 -4 -10 -40 11 -52 32 -50 26 -71 148 -22 132 -24 127 36 93z
m49 -294 c0 -13 -31 0 -40 17 -11 20 -11 20 14 4 14 -10 26 -19 26 -21z m38
-16 c20 -20 14 -27 -12 -15 -13 7 -22 15 -20 19 7 11 18 10 32 -4z m47 -150
c58 -149 145 -309 220 -403 48 -61 51 -75 5 -25 -107 116 -173 203 -230 305
-25 45 -91 193 -100 226 l-9 29 41 -24 c36 -21 45 -35 73 -108z"/>
<path d="M4705 5439 c-55 -4 -183 -12 -285 -18 -213 -13 -250 -22 -290 -67
-36 -41 -50 -90 -50 -174 0 -86 15 -137 51 -173 l30 -29 117 6 c64 4 171 11
237 16 66 5 194 14 283 20 169 11 211 22 232 59 16 30 12 117 -10 215 -34 155
-57 165 -315 145z m-95 -164 c18 -21 5 -47 -22 -43 -26 3 -37 36 -16 49 18 12
24 11 38 -6z"/>
<path d="M2775 5064 c-42 -22 -43 -25 -7 -18 50 10 37 -10 -15 -24 -26 -7 -42
-16 -37 -21 15 -14 64 -22 64 -11 0 5 4 10 9 10 6 0 12 -19 14 -42 2 -24 4 -6
5 40 1 45 1 82 0 82 -2 0 -16 -7 -33 -16z"/>
<path d="M1940 4963 c-34 -6 -47 -19 -53 -49 -5 -29 32 -64 69 -64 47 0 84 76
52 108 -12 12 -23 13 -68 5z"/>
<path d="M1778 4893 c6 -2 18 -2 25 0 6 3 1 5 -13 5 -14 0 -19 -2 -12 -5z"/>
<path d="M1860 4880 c0 -5 7 -10 16 -10 8 0 12 5 9 10 -3 6 -10 10 -16 10 -5
0 -9 -4 -9 -10z"/>
<path d="M2133 4883 c9 -2 25 -2 35 0 9 3 1 5 -18 5 -19 0 -27 -2 -17 -5z"/>
<path d="M2257 4864 c4 -12 3 -15 -5 -10 -7 4 -12 2 -12 -3 0 -6 7 -11 15 -11
17 0 20 25 5 35 -6 4 -7 -1 -3 -11z"/>
<path d="M2118 4853 c18 -2 45 -2 60 0 15 2 0 4 -33 4 -33 0 -45 -2 -27 -4z"/>
<path d="M2409 2707 c-44 -29 -95 -115 -108 -181 -13 -65 -2 -117 36 -165 78
-97 224 -95 291 3 48 70 51 143 10 236 -49 114 -149 161 -229 107z m132 -53
l24 -26 -25 8 c-14 4 -35 8 -47 7 -27 -1 -80 -44 -107 -85 -25 -39 -30 -30
-10 18 39 96 115 132 165 78z m-81 -68 c0 -7 -9 -21 -20 -31 -19 -18 -20 -17
-20 6 0 27 18 51 32 43 4 -3 8 -11 8 -18z"/>
<path d="M4900 4489 c-172 -22 -396 -117 -551 -233 -178 -134 -346 -342 -443
-546 -90 -190 -133 -366 -143 -575 -23 -515 211 -965 628 -1207 167 -97 365
-148 571 -148 355 0 657 128 920 391 197 197 328 436 391 718 29 131 31 432 4
561 -71 334 -254 628 -511 822 -140 106 -350 193 -526 218 -77 11 -249 11
-340 -1z m352 -64 c159 -28 293 -79 411 -158 69 -46 177 -137 177 -149 0 -4
-35 10 -77 31 -104 52 -232 96 -356 123 -92 20 -129 23 -367 22 -258 0 -268
-1 -365 -28 -199 -55 -336 -137 -484 -291 -131 -137 -232 -306 -296 -498 -49
-147 -68 -268 -68 -432 0 -168 18 -280 78 -480 3 -11 -4 0 -15 25 -12 25 -33
90 -47 145 -35 137 -44 405 -18 557 96 572 534 1046 1047 1132 111 19 277 19
380 1z m-62 -335 c282 -65 523 -285 629 -577 50 -137 64 -230 58 -393 -7 -217
-53 -365 -166 -537 -303 -458 -885 -579 -1297 -269 -79 59 -123 108 -188 209
-230 356 -229 803 1 1165 47 74 161 192 239 248 113 81 278 147 419 168 46 7
255 -3 305 -14z m794 -1305 c3 -8 -2 -21 -10 -30 -19 -19 -44 -4 -44 25 0 31
42 34 54 5z m-86 -207 c7 -7 12 -21 12 -33 0 -44 -60 -63 -80 -26 -14 27 -13
37 6 55 18 19 45 21 62 4z"/>
<path d="M4822 3920 c-443 -118 -703 -653 -543 -1117 41 -118 84 -186 181
-283 166 -167 335 -221 536 -170 234 59 441 229 554 455 64 128 81 193 87 338
7 155 -18 268 -91 411 -42 84 -66 116 -141 192 -77 78 -104 98 -189 140 -99
49 -99 49 -210 51 -85 2 -128 -2 -184 -17z m-59 -254 c153 -75 250 -283 218
-466 -58 -320 -403 -499 -603 -312 -77 71 -92 109 -92 222 0 159 47 311 138
448 87 131 109 145 213 139 51 -3 87 -11 126 -31z m341 -207 c30 -23 33 -54 9
-81 -34 -38 -103 -9 -103 43 0 16 44 59 60 59 4 0 19 -9 34 -21z m130 -308
c20 -22 14 -56 -11 -65 -47 -18 -81 35 -43 66 28 23 33 22 54 -1z m-309 -331
c15 -17 16 -24 7 -45 -16 -35 -58 -34 -74 1 -11 23 -10 29 11 45 29 24 34 24
56 -1z m-194 -100 c11 -6 19 -21 19 -35 0 -20 -24 -45 -44 -45 -10 0 -36 32
-36 45 0 13 26 45 36 45 3 0 14 -5 25 -10z"/>
<path d="M4747 3313 c-3 -4 -10 -27 -16 -51 -14 -51 -61 -106 -113 -133 -49
-25 -53 -54 -6 -45 81 16 157 105 161 187 2 38 -13 63 -26 42z"/>
<path d="M1134 4098 c-21 -18 -45 -51 -55 -73 -24 -51 -26 -153 -4 -161 26
-10 45 16 45 60 1 56 33 123 70 144 19 11 30 25 30 40 0 33 -42 29 -86 -10z"/>
</g>
</svg>
