<svg width="30" height="30" viewBox="0 0 25 24" fill="none" xmlns="http://www.w3.org/2000/svg">
<path d="M22.25 17.98C22.25 17.96 22.24 17.94 22.24 17.92C22.23 17.84 22.22 17.76 22.19 17.69C22.15 17.6 22.1 17.53 22.04 17.46C22.04 17.46 22.04 17.45 22.03 17.45C21.96 17.38 21.88 17.33 21.79 17.29C21.7 17.25 21.6 17.23 21.5 17.23L16.83 17.25C16.83 17.25 16.83 17.25 16.82 17.25C16.22 17.25 15.64 16.97 15.28 16.49L14.06 14.92C13.81 14.59 13.34 14.53 13.01 14.79C12.68 15.05 12.62 15.51 12.88 15.84L14.1 17.41C14.75 18.25 15.77 18.75 16.83 18.75H16.84L19.69 18.74L18.98 19.45C18.69 19.74 18.69 20.22 18.98 20.51C19.13 20.66 19.32 20.73 19.51 20.73C19.7 20.73 19.89 20.66 20.04 20.51L22.04 18.51C22.11 18.44 22.16 18.36 22.2 18.27C22.23 18.17 22.25 18.07 22.25 17.98Z" fill="#121212"/>
<path d="M8.92 6.69001C8.27 5.79001 7.23 5.26001 6.12 5.26001C6.11 5.26001 6.11 5.26001 6.1 5.26001L3.5 5.27001C3.09 5.27001 2.75 5.61001 2.75 6.02001C2.75 6.43001 3.09 6.77001 3.5 6.77001L6.11 6.76001H6.12C6.75 6.76001 7.34 7.06001 7.7 7.57001L8.78 9.07001C8.93 9.27001 9.16 9.38001 9.39 9.38001C9.54 9.38001 9.7 9.33001 9.83 9.24001C10.17 8.99001 10.24 8.52001 10 8.19001L8.92 6.69001Z" fill="#121212"/>
<path d="M22.24 6.07997C22.24 6.05997 22.25 6.03997 22.25 6.02997C22.25 5.92997 22.23 5.82997 22.19 5.73997C22.15 5.64997 22.1 5.56997 22.03 5.49997L20.03 3.49997C19.74 3.20997 19.26 3.20997 18.97 3.49997C18.68 3.78997 18.68 4.26997 18.97 4.55997L19.68 5.26997L16.95 5.25997C16.94 5.25997 16.94 5.25997 16.93 5.25997C15.78 5.25997 14.7 5.82997 14.06 6.79997L7.67 16.38C7.31 16.92 6.7 17.25 6.05 17.25H6.04L3.5 17.23C3.09 17.23 2.75 17.56 2.75 17.98C2.75 18.39 3.08 18.73 3.5 18.73L6.05 18.74C6.06 18.74 6.06 18.74 6.07 18.74C7.23 18.74 8.3 18.17 8.94 17.2L15.33 7.61997C15.69 7.07997 16.3 6.74997 16.95 6.74997H16.96L21.5 6.76997C21.6 6.76997 21.69 6.74997 21.79 6.70997C21.88 6.66997 21.96 6.61997 22.03 6.54997C22.03 6.54997 22.03 6.53997 22.04 6.53997C22.1 6.46997 22.16 6.39997 22.19 6.30997C22.22 6.23997 22.23 6.15997 22.24 6.07997Z" fill="#121212"/>
</svg>
