<svg width="30" height="30" viewBox="0 0 24 25" fill="none" xmlns="http://www.w3.org/2000/svg">
<path d="M2 10.5V14.5C2 16.5 3 17.5 5 17.5H6.43C6.8 17.5 7.17 17.61 7.49 17.8L10.41 19.63C12.93 21.21 15 20.06 15 17.09V7.90997C15 4.92997 12.93 3.78997 10.41 5.36997L7.49 7.19997C7.17 7.38997 6.8 7.49997 6.43 7.49997H5C3 7.49997 2 8.49997 2 10.5Z" stroke="#121212" stroke-width="1.5"/>
<path d="M18 8.5C19.78 10.87 19.78 14.13 18 16.5" stroke="#121212" stroke-width="1.5" stroke-linecap="round" stroke-linejoin="round"/>
<path d="M19.83 6C22.72 9.85 22.72 15.15 19.83 19" stroke="#121212" stroke-width="1.5" stroke-linecap="round" stroke-linejoin="round"/>
</svg>
